<svg xmlns="http://www.w3.org/2000/svg" xmlns:xlink="http://www.w3.org/1999/xlink" preserveAspectRatio="xMidYMid" width="10" height="11" viewBox="0 0 10 11">
  <defs>
    <style>

      .cls-2 {
        fill: #667083;
      }
    </style>
  </defs>
  <path d="M4.657,11.007 C4.657,11.007 4.078,10.456 4.078,10.456 C4.078,10.456 9.287,5.500 9.287,5.500 C9.287,5.500 4.078,0.544 4.078,0.544 C4.078,0.544 4.657,-0.007 4.657,-0.007 C4.657,-0.007 9.866,4.949 9.866,4.949 C9.866,4.949 9.866,4.949 9.866,4.949 C9.866,4.949 10.444,5.500 10.444,5.500 C10.444,5.500 4.657,11.007 4.657,11.007 ZM5.773,4.949 C5.773,4.949 6.352,5.500 6.352,5.500 C6.352,5.500 0.564,11.007 0.564,11.007 C0.564,11.007 -0.015,10.456 -0.015,10.456 C-0.015,10.456 5.194,5.500 5.194,5.500 C5.194,5.500 -0.015,0.544 -0.015,0.544 C-0.015,0.544 0.564,-0.007 0.564,-0.007 C0.564,-0.007 5.773,4.949 5.773,4.949 C5.773,4.949 5.773,4.949 5.773,4.949 Z" id="path-1" class="cls-2" fill-rule="evenodd"/>
</svg>
