<svg xmlns="http://www.w3.org/2000/svg" xmlns:xlink="http://www.w3.org/1999/xlink" preserveAspectRatio="xMidYMid" width="11" height="11" viewBox="0 0 11 11">
  <defs>
    <style>

      .cls-2 {
        fill: #667083;
      }
    </style>
  </defs>
  <path d="M10.453,10.456 C10.453,10.456 9.874,11.007 9.874,11.007 C9.874,11.007 4.086,5.500 4.086,5.500 C4.086,5.500 4.665,4.949 4.665,4.949 C4.665,4.949 4.665,4.949 4.665,4.949 C4.665,4.949 9.874,-0.007 9.874,-0.007 C9.874,-0.007 10.453,0.544 10.453,0.544 C10.453,0.544 5.243,5.500 5.243,5.500 C5.243,5.500 10.453,10.456 10.453,10.456 ZM6.360,10.456 C6.360,10.456 5.781,11.007 5.781,11.007 C5.781,11.007 -0.007,5.500 -0.007,5.500 C-0.007,5.500 0.572,4.949 0.572,4.949 C0.572,4.949 0.572,4.949 0.572,4.949 C0.572,4.949 5.781,-0.007 5.781,-0.007 C5.781,-0.007 6.360,0.544 6.360,0.544 C6.360,0.544 1.151,5.500 1.151,5.500 C1.151,5.500 6.360,10.456 6.360,10.456 Z" id="path-1" class="cls-2" fill-rule="evenodd"/>
</svg>
